<?xml version="1.0" encoding="UTF-8"?>
<svg id="Layer_1" xmlns="http://www.w3.org/2000/svg" version="1.1" viewBox="0 0 430.47 263.52">
  <!-- Generator: Adobe Illustrator 30.6.0, SVG Export Plug-In . SVG Version: 2.1.4 Build 109)  -->
  <defs>
    <style>
      .st0 {
        fill: #fff;
      }

      .st1 {
        fill: #db1f26;
      }
    </style>
  </defs>
  <path class="st0" d="M333.35,243.02c-.49-3.9-4.12-7.7-8.58-7.82l-12.56-.32-.11,27.67,5.26.11.16-8.94c.07-1.35,3.46-1.15,3.99-.31l5.81,9.23,6.02.02-6.74-9.91c4.52-1.62,7.31-5.33,6.75-9.74ZM317.44,248.25v-8.23h7.04c2.27,0,4.12,1.84,4.12,4.12s-1.84,4.12-4.12,4.12h-7.04Z"/>
  <g id="QbzGs8.tif">
    <g>
      <path class="st0" d="M248.99,123.68l10.62,6c12.95,7.31,18.03,21.6,15.03,35.87-2.59,12.32-9.41,22.52-20.75,28.45-8.54,4.57-17.83,6.98-27.86,7.01l-67.61.21V54.12s57.43-.12,57.43-.12l7.82.48c12.06-.13,23.33,3.79,32.15,11.81,11.91,10.82,15.23,27.18,8.42,41.82-3.11,6.7-8.21,10.9-15.27,15.55ZM234.86,99.8c.18-4.41-.45-8.77-4.04-11.8-3.04-2.57-7.61-4.16-11.84-4.18l-28.16-.15.13,9.41.05,20.17,27.33-.02c8.88,0,16.14-4.1,16.52-13.43ZM240.79,159.16l.08-5.24c.13-8.57-8.61-13.25-16.69-13.27l-33.38-.09.16,11.01.03,20.63,35.57-.2c7.54-.04,14.11-5.41,14.22-12.84Z"/>
      <path class="st0" d="M103.68,170.94l-59.69-.07-10.34,28.26c-.47,1.29-1.7,2.15-3.08,2.15l-29.5-.07c-1.9-.63-.56-2.97-.3-3.64l22.95-60.43,29.65-77.49c1.13-2.96,2.66-5.62,6.08-5.62l30.22.02c2.38,0,4.43,1.72,5.23,3.86l26.85,71.33,25.69,67.4c.34.88.33,2.5.08,3.17s-1.96,1.44-2.69,1.44l-27.24.02c-1.56-.32-3.02-1.35-3.72-2.71l-10.17-27.63ZM92.38,140.27s-13.59-32.51-18.24-43.77c-.33-.81-1.48-.78-1.79.03l-10.73,28.69-5.34,15.24,36.1-.2Z"/>
      <path class="st0" d="M357.87,114.15l58.54-.07c1.22,0,2.67,1.3,2.67,2.54l-.03,62.47c-5.35,7.02-12.23,11.27-19.81,15.38-23.87,12.95-57.3,12.06-80.89-1.82-17.01-10-28.3-26.87-31.21-46.22-.56-3.74.63-6.94,2.45-9.85,5.46-8.77,11.53-16.6,18.92-23.73,4.91-4.73,9.3-9.14,15.42-12.76l-3.93,14.57c-4.21,15.6-.43,35.62,11.06,47.1,4.34,4.34,10.22,7.37,15.88,9.3,6.73,2.3,13.71,1.95,20.61,1.54,6.34-.61,12.03-2.14,17.9-5.15l.04-23.67-27.6.04v-29.67Z"/>
      <path class="st1" d="M288.58,126.59l-1.32-6.95c-2.02-30.53,11.05-60.42,37.35-76.66,10.09-6.23,20.6-9.61,32.53-10.78l6.95-.68c15.87-.25,30.79-6.36,41.19-18.52,3.27-3.82,5.48-8.16,8.32-12.99,6.83,14.49,9.89,35.43,2.9,49.55-10.48,21.16-32.9,32.46-56.28,30.95-7.64-.5-15.08-.16-22.12,2.52-13.75,5.23-25.39,13.93-35.35,24.65-5.49,5.91-9.46,12.39-14.16,18.92Z"/>
      <path class="st0" d="M253.06,262.63l-.11-16.52-8.27,11.52-8.62-12.06-.08,17.08h-4.94s-.02-27.36-.02-27.36l4.67-.26,9.02,14.44,8.89-13.92c1.15-.56,3.14-.61,4.93-.38l.06,27.46h-5.53Z"/>
      <path class="st0" d="M369.47,247.85c.74,6.03-3.36,11.58-7.66,13.73-5.62,2.81-12.02,2.52-16.61-1.38-4.89-4.15-6.48-10.86-4.1-16.8,2.22-5.52,7.93-9.63,14.56-9.07,7.06.6,12.89,6.01,13.81,13.52ZM353.7,258.59c4.57.65,8.33-2.87,9.48-6.36,1.44-4.4.1-8.39-3.47-11.17-2.73-2.12-6.7-2.34-9.65-.58-2.78,1.66-4.48,5.01-4.5,8.55-.03,4.95,2.72,8.79,8.15,9.56Z"/>
      <path class="st0" d="M298.9,252.29l-6.42.08.42-3.8,11.11-.03-.21,10.58c-6.2,6.78-18.5,5.67-23.58-2.94-2.95-5.01-2.64-11.21,1.13-16.2,5.17-6.85,15.26-7.71,21.96-1.83l-3.9,3.98c-3.11-2.99-7.02-3.6-10.67-1.7-5,2.61-6.29,8.75-3.65,13.46,2.49,4.44,8.74,6.32,13.48,3.5l.33-5.09Z"/>
      <polygon class="st0" points="192.47 262.7 187.12 262.53 187.01 251.03 174.57 251.02 174.46 262.65 169.33 262.63 169.34 235.12 174.36 235.06 174.56 246.37 186.94 246.46 187.15 235.09 192.58 235 192.47 262.7"/>
      <path class="st0" d="M216.97,256.91l-11.35-.1-2.34,5.81-5.5-.07,10.33-27.28c1.64-.39,3.77-.43,5.73-.23l10.77,27.32-5.46.38-2.18-5.84ZM214.76,251.74l-3.85-10.25-3.82,10.29,7.66-.04Z"/>
      <path class="st0" d="M18.83,256.85l-11.28-.02-2.16,5.75-5.38.02,10.35-27.62,5.59-.03,10.77,27.62-5.37.08-2.5-5.79ZM17.04,251.71l-4.03-10.26-3.77,10.31,7.79-.05Z"/>
      <path class="st0" d="M125.46,256.85l-11.15-.02-2.54,5.83-5.34-.13,10.55-27.64,5.43.21,10.9,27.5-5.44.03-2.41-5.79ZM123.43,251.76l-3.76-10.25-3.76,10.29,7.52-.03Z"/>
      <path class="st0" d="M394.53,235.33l5.52-.23-.21,16.51c-.09,7.04-4.68,12.02-11.97,11.85-5.43-.13-10.73-3.84-10.79-9.93l-.18-18.41,4.98-.03.17,17.22c.03,3.4,2.64,6.12,5.63,6.35,3.26.24,5.85-1.84,6.83-5.18l.02-18.15Z"/>
      <polygon class="st0" points="51.52 258.25 51.51 262.68 34.24 262.67 34.22 234.93 39.7 235.04 39.72 258.26 51.52 258.25"/>
      <polygon class="st0" points="71.08 251.67 58.94 251.69 59.06 247.54 71.03 247.77 71.08 251.67"/>
    </g>
  </g>
  <path class="st0" d="M95.17,247.98c3.13-1.57,4.16-2.77,4.41-5.49-.51-8.83-10.52-7.64-19.91-7.69v27.9s14.93-.34,14.93-.34c3.94-.09,6.68-4,6.73-7.13.07-3.87-2.24-6.11-6.17-7.25ZM84.99,239.97h6.4c1.72,0,3.12,1.4,3.12,3.12s-1.4,3.12-3.12,3.12h-6.4v-6.24ZM91.82,258.49h-7.04v-8.23h7.04c2.27,0,4.12,1.84,4.12,4.12s-1.84,4.12-4.12,4.12Z"/>
  <path class="st0" d="M161.37,243.02c-.49-3.9-4.12-7.7-8.58-7.82l-12.56-.32-.11,27.67,5.26.11.16-8.94c.07-1.35,3.46-1.15,3.99-.31l5.81,9.23,6.02.02-6.74-9.91c4.52-1.62,7.31-5.33,6.75-9.74ZM145.45,248.25v-8.23h7.04c2.27,0,4.12,1.84,4.12,4.12s-1.84,4.12-4.12,4.12h-7.04Z"/>
  <path class="st0" d="M429.89,241.19c-1.07-2.79-4.1-6.06-7.76-6.07l-12.52-.04-.02,27.64,5.36-.08.15-9.19c4.93.1,8.64.05,12-2.21,3.22-2.16,4.11-6.61,2.79-10.04ZM421.63,248.47h-6.78v-9.02h6.78c2.49,0,4.51,2.02,4.51,4.51s-2.02,4.51-4.51,4.51Z"/>
</svg>